<?xml version="1.0" encoding="UTF-8"?>
<svg width="16px" height="16px" viewBox="0 0 16 16" version="1.1" xmlns="http://www.w3.org/2000/svg" xmlns:xlink="http://www.w3.org/1999/xlink">
    <!-- Generator: sketchtool 61.2 (101010) - https://sketch.com -->
    <title>26ECDCDC-6E9F-487B-B8AD-7F9F13433316</title>
    <desc>Created with sketchtool.</desc>
    <g id="Asset-Artboard-Page" stroke="none" stroke-width="1" fill="none" fill-rule="evenodd">
        <g id="nav/icons/logout-copy-2-nav/icons/logout" fill="#FFFFFF" fill-rule="nonzero">
            <path d="M8.47361745,8.80183951 L6.63326616,10.6341893 C6.48178712,10.7844312 6.39658232,10.988947 6.39658232,11.2022977 C6.39658232,11.4156485 6.48178712,11.6201642 6.63326616,11.7704061 C6.78350812,11.9218852 6.98802385,12.00709 7.2013746,12.00709 C7.41472535,12.00709 7.61924108,11.9218852 7.76948304,11.7704061 L10.970094,8.56979521 C11.0429404,8.49369772 11.1000433,8.40396462 11.138126,8.30574481 C11.2181557,8.11093854 11.2181557,7.892435 11.138126,7.69762874 C11.1000433,7.59940893 11.0429404,7.50967583 10.970094,7.43357833 L7.76948304,4.2329674 C7.56651744,4.03000179 7.27068864,3.9507347 6.99343247,4.02502526 C6.7161763,4.09931582 6.49961458,4.31587754 6.42532402,4.59313371 C6.35103346,4.87038988 6.43030055,5.16621869 6.63326616,5.36918428 L8.47361745,7.20153404 L0.800152733,7.20153404 C0.358240581,7.20153404 0,7.55977462 0,8.00168677 C0,8.44359893 0.358240581,8.80183951 0.800152733,8.80183951 L8.47361745,8.80183951 Z M8.00152733,7.92516492e-05 C4.950763,-0.0134607675 2.15772599,1.70891206 0.800152733,4.44100711 C0.601292265,4.83872805 0.762500526,5.32235283 1.16022146,5.5212133 C1.5579424,5.72007377 2.04156718,5.55886551 2.24042765,5.16114457 C3.64041815,2.33393054 6.89155308,0.94830561 9.9005744,1.8964107 C12.9095957,2.84451579 14.7791605,5.84360935 14.305541,8.96271133 C13.8319215,12.0818133 11.1563593,14.3907528 8.00152733,14.4029086 C5.56685852,14.4134521 3.34085064,13.0299695 2.27243376,10.842229 C2.07357329,10.4445081 1.58994851,10.2832998 1.19222758,10.4821603 C0.794506655,10.6810207 0.63329839,11.1646455 0.832158843,11.5623664 C2.5879454,15.0957598 6.65731076,16.8218481 10.4180699,15.6283884 C14.178829,14.4349287 16.508252,10.6782142 15.9053239,6.7789665 C15.3023958,2.87971877 11.9471137,0.00201183822 8.00152733,7.92516492e-05 L8.00152733,7.92516492e-05 Z" id="Logout"></path>
        </g>
    </g>
</svg>
