<svg xmlns="http://www.w3.org/2000/svg" width="16" height="13" viewBox="0 0 16 13" fill="none">
<path d="M8.075 1.21482C8.0275 1.19532 7.9725 1.19532 7.9025 1.21482L1.5745 3.78932C1.34825 3.88182 1.2 4.10182 1.2 4.34432V12.1368C1.2 12.4693 0.93125 12.7368 0.6 12.7368C0.26875 12.7368 0 12.4693 0 12.1368V4.34432C0 3.61182 0.4445 2.95182 1.12375 2.67682L7.4525 0.102566C7.8125 -0.0341844 8.1875 -0.0341844 8.525 0.102541L14.875 2.67669C15.555 2.95169 16 3.61169 16 4.34419V12.1367C16 12.4692 15.7325 12.7367 15.4 12.7367C15.0675 12.7367 14.8 12.4692 14.8 12.1367V4.34419C14.8 4.10169 14.6525 3.88169 14.425 3.78919L8.075 1.21457V1.21482ZM3.5775 5.93682V12.1368C3.5775 12.4693 3.3325 12.7368 2.9775 12.7368C2.6675 12.7368 2.3775 12.4693 2.3775 12.1368V5.73682C2.3775 5.18432 2.8475 4.73682 3.3775 4.73682H12.6C13.1525 4.73682 13.6 5.18432 13.6 5.73682V12.1368C13.6 12.4693 13.3325 12.7368 13 12.7368C12.6675 12.7368 12.4 12.4693 12.4 12.1368V5.93682H3.5775ZM11 10.3368C11.3325 10.3368 11.6 10.6043 11.6 10.9368V12.1368C11.6 12.4693 11.3325 12.7368 11 12.7368H9.4C9.0675 12.7368 8.8 12.4693 8.8 12.1368V10.9368C8.8 10.6043 9.0675 10.3368 9.4 10.3368H11ZM4.3775 7.73682C4.37748 7.40432 4.6675 7.13682 4.9775 7.13682H7.3775C7.7325 7.13682 7.9775 7.40432 7.9775 7.73682V8.93682C7.9775 9.26932 7.7325 9.53682 7.3775 9.53682H4.9775C4.6675 9.53682 4.3775 9.26932 4.3775 8.93682V7.73682ZM7.3775 10.3368C7.7325 10.3368 7.9775 10.6043 7.9775 10.9368V12.1368C7.9775 12.4693 7.7325 12.7368 7.3775 12.7368H4.9775C4.6675 12.7368 4.3775 12.4693 4.3775 12.1368V10.9368C4.3775 10.6043 4.6675 10.3368 4.9775 10.3368H7.3775Z" fill="#CDCED9"/>
</svg>